<svg width="24" height="24" viewBox="0 0 24 24" fill="none" xmlns="http://www.w3.org/2000/svg">
  <path
    fill="currentColor"
    fill-rule="evenodd"
    clip-rule="evenodd"
    d="M11.823 3.42c-.367.456-.489.65-.489.778 0 .269.387.831.6.872.204.039.38-.089.612-.446.19-.29.19-.396-.002-.723-.13-.223-.488-.721-.518-.721a3.22 3.22 0 0 0-.203.24Zm3.006.12a3.06 3.06 0 0 0-.256.501c-.125.453.26 1.033.638.962.257-.049.715-.653.66-.871-.029-.115-.496-.755-.614-.84-.185-.136-.2-.127-.428.248Zm-6.22-.279c-.123.071-.641.801-.641.903 0 .215.307.703.507.807.258.133.453.055.674-.27.173-.255.217-.439.152-.628-.063-.184-.518-.855-.578-.854a.315.315 0 0 0-.114.042ZM7.564 4.953c-.146.08-.408.36-.517.552-.165.289-.272.686-.297 1.103-.031.502-.025.51.43.477.508-.036.61-.073.685-.245.034-.08.073-.213.087-.298a4.12 4.12 0 0 1 .178-.55c.095-.246.144-.428.13-.483-.028-.115-.299-.42-.461-.52-.148-.092-.135-.09-.235-.035Zm8.414.066c-.173.106-.401.389-.401.497 0 .052.06.226.132.388.166.366.252.691.252.948v.199l.178.024c.098.013.35.024.56.024h.38l.057-.135c.045-.11.048-.183.015-.393-.096-.607-.297-1.044-.636-1.383-.261-.263-.342-.288-.537-.169Zm-2.894.296a2.83 2.83 0 0 0-.12.384c0 .069.45 1.213.495 1.258.034.034.737.139.95.141l.119.001-.017-.201c-.061-.74-.466-1.476-.971-1.766-.325-.187-.32-.19-.456.184Zm-2.533-.214c-.237.107-.55.438-.697.736-.171.35-.272.923-.191 1.09.056.114.058.115.362.108a2 2 0 0 0 .516-.076c.239-.08.209-.018.424-.884.14-.563.15-.846.037-.967-.096-.103-.235-.106-.451-.007Zm-5.625.77c-.08.046-.377.461-.488.68-.111.217-.104.324.039.592.205.385.479.565.683.451.233-.13.466-.72.39-.987-.047-.159-.458-.776-.517-.775a.29.29 0 0 0-.107.039Zm13.85.049c-.202.112-.47.595-.47.846 0 .213.197.707.328.823a.357.357 0 0 0 .233.087c.112 0 .17-.035.34-.205.201-.202.366-.464.366-.583 0-.148-.56-1.02-.653-1.017a.4.4 0 0 0-.143.049Zm-5.37 1.46c-.008.026-.05.215-.094.421a3.753 3.753 0 0 1-.194.628c-.106.234-.11.261-.06.36.125.24.707.672.873.648.179-.026.382-.502.513-1.203.07-.376.056-.494-.069-.574-.155-.098-.954-.329-.969-.28Zm-6.22.138c-.418.077-.464.122-.428.427.051.445.219.98.448 1.434.183.364.376.629.768 1.054.363.395.617.612.812.694.105.044.11.04.318-.28a4.27 4.27 0 0 0 .27-.464l.059-.14-.335-.332C8.356 9.176 8.05 8.587 7.91 7.628l-.027-.183-.178.005a4.7 4.7 0 0 0-.518.068Zm2.838-.02-.423.043-.011.177c-.031.476.302 1.486.555 1.685.14.11.203.1.469-.077.286-.191.543-.475.543-.6 0-.05-.067-.225-.149-.388-.082-.163-.17-.4-.194-.528a6.091 6.091 0 0 0-.065-.298c-.022-.077-.082-.078-.725-.013Zm6.052-.027c0 .02-.034.227-.076.457-.142.788-.362 1.279-.78 1.734-.506.553-.514.6-.175 1.091.13.189.252.343.27.343.101 0 .35-.178.574-.41.466-.484.89-1.229 1.09-1.915.098-.337.211-.969.211-1.182 0-.1-.008-.105-.182-.106-.1 0-.351-.01-.557-.025-.235-.015-.375-.01-.375.013ZM4.9 8.444c-.192.139-.413.43-.472.62-.034.11-.03.18.018.345.083.28.34.666.486.726.102.043.139.036.325-.055.286-.14.405-.288.405-.504 0-.133-.058-.283-.272-.708-.15-.296-.286-.539-.302-.539-.016 0-.1.052-.188.115Zm13.906.025c-.194.163-.543.913-.546 1.174-.003.173.096.303.314.415.234.12.398.15.505.094.203-.106.417-.537.417-.839 0-.13-.045-.23-.253-.552-.14-.216-.268-.393-.285-.393a.527.527 0 0 0-.152.1Zm-6.842.803c-.373.204-1.116.729-1.106.781.013.063.93.697 1.178.814.217.103.283.08.72-.257.394-.303.67-.566.667-.637 0-.027-.124-.127-.273-.222-.528-.336-.936-.576-.974-.575a1.045 1.045 0 0 0-.212.096Zm-1.937 1.522c-.332.358-.56.703-.56.846 0 .158.164.463.359.666.251.263.319.248.71-.163.176-.185.423-.463.549-.618l.228-.282-.28-.2a29.75 29.75 0 0 0-.516-.361l-.237-.161-.253.273Zm-4.495-.07c-.34.108-.426.21-.365.43.072.258.36.833.528 1.056.23.304.802.87.949.94.212.101.269.079.501-.2.384-.46.385-.543.008-.839-.296-.233-.55-.54-.815-.991-.22-.375-.327-.487-.463-.483-.043 0-.198.04-.343.087Zm12.157.185c-.094.134-.22.315-.277.402-.166.248-.536.635-.843.881-.155.124-.296.237-.313.252-.04.032.214.544.366.737.071.09.146.144.2.144.147 0 .416-.212.898-.707.437-.449.476-.502.697-.95.13-.262.246-.532.259-.6.023-.123.018-.128-.235-.246a1.748 1.748 0 0 0-.419-.139c-.16-.018-.162-.017-.333.226Zm-4.053-.086c-.206.118-.557.466-.557.553 0 .029.045.094.1.146.135.124.5.574.708.87.217.311.29.316.548.04.189-.203.46-.575.496-.683.035-.101-.068-.24-.48-.644-.456-.448-.5-.463-.815-.282ZM11.63 11.97c-.318.213-.621.49-.624.57-.002.06.048.103.198.173.37.171.754.451 1.1.802.19.191.37.348.4.348.032 0 .19-.127.35-.282.388-.373.39-.417.029-.823-.465-.523-.573-.61-.938-.757a10.405 10.405 0 0 0-.348-.136c-.005 0-.08.047-.167.105Zm-7.158.379c-.066.076-.2.257-.297.402L4 13.015l.046.184c.078.31.263.658.385.72.129.067.245.038.573-.146.367-.205.387-.455.084-1.058-.145-.289-.335-.505-.443-.505-.028 0-.106.063-.173.139Zm14.398.082c-.184.251-.411.673-.41.763 0 .144.182.46.357.62.196.18.359.212.558.11.21-.11.445-.699.355-.895-.091-.2-.508-.734-.59-.756-.13-.035-.128-.036-.27.158Zm-11.18.52c-.241.435-.284.524-.33.692l-.04.146.768.383c.73.363.884.419.977.353.043-.03.491-.933.471-.95a29.618 29.618 0 0 0-.511-.29c-.275-.153-.64-.363-.813-.465a4.546 4.546 0 0 0-.33-.187c-.008 0-.095.143-.192.317Zm7.483.03c-.317.19-.608.384-.647.43-.095.113-.07.247.13.69.186.416.244.492.377.492.096 0 1.02-.52 1.187-.667.14-.123.108-.257-.186-.795-.15-.274-.275-.498-.278-.498-.004 0-.266.157-.583.348Zm-4.095.838c-.197.127-.687.628-.888.908-.19.265-.382.66-.386.79-.002.075.052.181.166.328l.265.346c.093.123.325.281.36.245.009-.01.15-.24.313-.511.164-.272.445-.678.625-.904.368-.46.448-.61.396-.743-.063-.16-.527-.569-.646-.569-.019 0-.11.05-.204.11Zm2.5.19c-.205.13-.384.33-.384.43 0 .112.382 1.163.45 1.238.09.1.208.085.4-.05.242-.17.341-.302.341-.45 0-.126-.425-1.022-.568-1.198l-.066-.08-.173.11Zm5.071.535c-.14.22-.226.488-.256.79-.02.198-.012.233.07.321.123.132.377.304.493.333.129.032.318-.173.529-.572l.16-.306-.147-.193a1.532 1.532 0 0 0-.569-.473l-.163-.084-.117.184Zm-13.867-.037c-.286.145-.447.35-.442.566.004.174.217.676.339.798.206.207.885-.12.876-.422-.003-.108-.19-.65-.293-.849-.042-.083-.204-.204-.265-.199a5.19 5.19 0 0 0-.215.106Zm11.467.01c-.127.04-.29.124-.365.185l-.134.113.092.447c.099.482.095.746-.014 1.056-.033.092-.06.206-.06.253 0 .105.293.52.367.52.069 0 .323-.34.461-.615a2.73 2.73 0 0 0 .315-1.104c.025-.417-.028-.652-.176-.79-.145-.137-.226-.147-.486-.065Zm-9.2.044c-.224.154-.282.307-.257.685a2.94 2.94 0 0 0 .546 1.55c.258.352.525.353.645 0 .082-.24.078-.374-.02-.627-.126-.326-.142-.837-.036-1.148.046-.135.077-.251.07-.259-.05-.049-.549-.248-.67-.267-.116-.019-.174-.005-.278.066Zm5.11.945c-.249.251-1.004 1.26-1.15 1.534-.07.134-.052.239.073.425.065.095.176.29.248.433.136.27.21.332.322.271.037-.02.269-.311.515-.648s.56-.736.698-.886c.138-.15.262-.318.276-.373.05-.199-.473-1.054-.643-1.054-.024 0-.176.134-.338.298Zm5.627 1.17c-.303.57-.454.777-.848 1.168-.731.723-1.302 1.015-2.245 1.148l-.557.08c-.11.017-.125.044-.293.496l-.177.478.158.065c.088.037.305.074.493.084 1.068.057 2.374-.462 3.273-1.301.332-.31.705-.787.866-1.107.145-.287.464-1.064.464-1.129 0-.028-.088-.083-.195-.122a2.374 2.374 0 0 1-.418-.219 2.422 2.422 0 0 0-.237-.148 6.97 6.97 0 0 0-.284.507ZM5.49 16.44c-.53.195-.486.154-.418.389.146.499.759 1.466 1.227 1.935.507.507 1.479 1.094 2.26 1.362.725.25.84.227 1.331-.263a5.17 5.17 0 0 0 .482-.536c.15-.231.108-.26-.359-.25-1.671.039-2.92-.709-3.869-2.317-.142-.241-.279-.437-.303-.436a3.475 3.475 0 0 0-.35.116Zm9.28.457c-.545.162-.768.25-.768.301 0 .02.026.11.058.2.031.089.057.278.057.419 0 .148.02.276.046.303.113.112.592-.009 1.215-.306.428-.204.448-.25.262-.626-.124-.25-.293-.454-.365-.44l-.504.149Zm-6.431.087c-.114.197-.196.464-.167.54.028.072.458.312.774.43.136.052.438.138.67.192.6.138.727.073.546-.282-.04-.08-.111-.26-.156-.4s-.106-.273-.134-.297c-.07-.058-1.16-.345-1.316-.345-.104-.001-.137.023-.217.162Zm4.746.44c-.028.011-.18.219-.337.46-.593.914-1.255 1.655-1.752 1.962-.122.075-.222.152-.222.171 0 .02.082.122.181.229.132.14.285.244.567.382.212.104.412.19.444.19.106 0 .223-.113.25-.24.044-.203.15-.373.46-.74.56-.666.702-.946.737-1.458.04-.582-.117-1.04-.328-.956Z"
  />
</svg>
