<svg width="24" height="24" viewBox="0 0 24 24" fill="none" xmlns="http://www.w3.org/2000/svg">
  <path
    fill="currentColor"
    d="M21 16.518v.647c-.143 1.782-1.694 3.578-3.537 3.773-.918.096-3.957.102-4.76-.14-2.693-.81-3.234-4.546-.99-6.2.74-.547 4.082-1.84 4.986-1.859 2.135-.044 4.13 1.646 4.3 3.78v-.001ZM7.898 3.173c2.38-.23 6.673-.218 9.074-.037 3.953.298 5.053 4.947 1.532 7.033-1.568.928-7.136 3.352-8.81 3.527C1.3 14.572.914 3.85 7.898 3.173ZM6.041 14.507c3.725-.043 4.114 5.758.691 6.38-4.663.849-5.025-6.329-.69-6.38Z"
  />
</svg>
