<svg width="24" height="24" viewBox="0 0 24 24" fill="none" xmlns="http://www.w3.org/2000/svg">
  <path fill="currentColor" d="M21.79 5.76c-.212-.107-.303.095-.427.197-.042.033-.078.076-.114.116-.31.337-.671.558-1.144.532-.69-.04-1.28.182-1.802.72-.111-.664-.48-1.06-1.04-1.315-.293-.132-.59-.264-.795-.552-.144-.205-.183-.433-.254-.657-.046-.136-.092-.275-.245-.298-.166-.026-.231.116-.296.235-.261.486-.362 1.02-.352 1.563.023 1.22.528 2.19 1.531 2.881.115.08.144.159.108.274-.068.238-.15.47-.222.708-.045.152-.114.185-.273.119a4.603 4.603 0 0 1-1.448-1.002c-.713-.703-1.359-1.48-2.164-2.088a9.394 9.394 0 0 0-.573-.4c-.822-.813.107-1.48.322-1.56.225-.082.079-.366-.648-.363-.727.003-1.392.251-2.24.582-.123.05-.254.086-.387.115a7.85 7.85 0 0 0-2.403-.086c-1.57.179-2.825.935-3.748 2.227-1.108 1.554-1.369 3.318-1.05 5.159.336 1.94 1.308 3.545 2.8 4.8 1.549 1.303 3.332 1.94 5.365 1.818 1.236-.072 2.611-.24 4.162-1.58.392.199.802.278 1.483.338.525.05 1.03-.027 1.422-.11.612-.131.57-.71.348-.815-1.795-.853-1.401-.506-1.76-.787.794-.957 1.94-1.947 2.577-4.63a9.037 9.037 0 0 0 .25-2.035c0-.134.028-.201.191-.218a3.43 3.43 0 0 0 1.288-.403c1.163-.647 1.633-1.711 1.744-2.987.016-.195-.004-.397-.206-.499ZM11.65 17.237c-1.74-1.394-2.584-1.854-2.933-1.834-.326.02-.267.4-.195.648.075.245.172.413.31.628.094.142.159.353-.095.512-.56.354-1.535-.119-1.581-.142-1.134-.68-2.083-1.58-2.751-2.809a8.698 8.698 0 0 1-1.082-3.806c-.016-.328.078-.443.398-.503a3.84 3.84 0 0 1 1.274-.033c1.776.265 3.289 1.074 4.556 2.356.724.73 1.272 1.603 1.835 2.455.6.906 1.246 1.768 2.067 2.475.29.248.521.436.743.575-.668.076-1.783.093-2.546-.522Zm.842-5.532a.256.256 0 0 1 .338-.181.26.26 0 0 1 .166.245.258.258 0 0 1-.422.2.258.258 0 0 1-.086-.157.275.275 0 0 1 .004-.107Zm2.5 1.452a1.302 1.302 0 0 1-.408.102 1.025 1.025 0 0 1-.665-.215c-.228-.195-.391-.304-.46-.644a1.514 1.514 0 0 1 .014-.5c.058-.277-.007-.455-.2-.617-.156-.132-.354-.169-.573-.169a.459.459 0 0 1-.212-.066.217.217 0 0 1-.094-.304.953.953 0 0 1 .16-.178c.296-.172.638-.116.954.013.294.122.516.347.835.664.326.383.384.49.57.777.147.224.28.456.372.72.046.138.004.256-.124.339-.052.033-.112.056-.169.078Z"/>
</svg>
