<svg width="24" height="24" viewBox="0 0 24 24" fill="none" xmlns="http://www.w3.org/2000/svg">
  <path fill="currentColor" fillRule="evenodd" clipRule="evenodd" d="M17.406 3.565c-1.99.506-4.028 2.59-5.026 5.136-1.093 2.791-1.022 6.366.177 8.873.177.369.33.67.34.67.011 0 .022-.426.026-.946.01-1.442.387-2.633 1.186-3.74.926-1.285 2.03-1.903 4.333-2.424 1.201-.272 1.836-.579 2.433-1.177a3.755 3.755 0 0 0 1.008-3.62c-.512-2.067-2.473-3.281-4.477-2.772ZM4.171 5.657c-1.742.572-2.65 2.61-1.914 4.299.576 1.324 1.337 1.8 3.238 2.026 1.376.163 2.041.32 2.468.584.861.53 1.744 2.045 2 3.432l.138.74.113-.277c.212-.52.426-1.539.505-2.4A9.13 9.13 0 0 0 9.92 9.45c-.638-1.4-1.594-2.54-2.708-3.23-1.045-.647-2.158-.853-3.042-.562Zm3.536 8.098c.134.657-.272 1.36-1.224 2.123-.753.602-.99.962-1.038 1.58-.111 1.409 1.254 2.35 2.493 1.72.4-.204.907-.754 1.234-1.339.177-.318.197-.426.153-.861-.108-1.092-.803-2.661-1.451-3.279l-.221-.21.054.266Zm7.011.5c-.751.981-1.192 2.218-1.26 3.536-.06 1.19-.012 1.38.483 1.91.592.633 1.057.846 1.858.853.545.005.709-.03 1.094-.228 1.18-.61 1.722-2.025 1.264-3.302-.274-.762-.812-1.27-1.818-1.717-.884-.392-1.106-.585-1.246-1.082l-.094-.335-.28.366Z"/>
</svg>
