<svg width="24" height="24" viewBox="0 0 24 24" fill="none" xmlns="http://www.w3.org/2000/svg">
  <path
    fill="currentColor"
    d="M13.957 4.71c.121-.22.351-.49.548-.654.432-.358.781-.293 1.296-.172.443.105 1.58.56 1.83.929.272.398.09 1.053.13 1.506.463.213.844.633 1.14 1.042.63.045 1.26-.208 1.713.372.446.57.977 2.023.735 2.718-.114.328-.632.57-.878.799.147.462-.002 1.017.068 1.467.026.168.257.243.383.354.541.476.56.665.44 1.372-.08.477-.476 1.745-.824 2.063-.316.29-1.134.2-1.541.255-.305.403-.679.818-1.141 1.043.045.372.059.778-.036 1.149-.096.37-.286.503-.598.685-.517.302-1.46.67-2.059.604-.267-.03-.489-.208-.69-.368-.11-.09-.421-.424-.505-.458-.15-.06-1.175-.07-1.398-.06-.223.01-.148.101-.23.211-.2.264-.691.64-1.026.675-.606.063-1.918-.502-2.456-.817-.282-.165-.43-.303-.476-.646a4.576 4.576 0 0 1-.037-.608c.009-.132.13-.305.068-.385L7.376 16.8c-.442-.107-.952.018-1.371-.168-.385-.171-.77-1.03-.92-1.422-.168-.436-.37-.99-.254-1.451.077-.305.523-.655.772-.865.041-.035.14-.057.146-.085-.01-.392-.07-.824-.035-1.215.022-.234.169-.253-.03-.45-.351-.346-.923-.501-.934-1.088-.011-.588.643-2.357 1.2-2.62.442-.209 1.003-.114 1.466-.073.278-.403.609-.83 1.042-1.076.055-.09-.066-.726-.048-.915a1.73 1.73 0 0 1 .144-.434c.28-.527 1.958-1.22 2.534-1.187.576.034.984.507 1.322.925a8.315 8.315 0 0 1 1.547.035Zm3.873 12.536c.319-.297.61-.625.868-.977l1.244.093c.238-.021.31-.14.415-.326.337-.6.563-1.262.783-1.913.02-.226-.183-.259-.298-.361-.101-.09-.188-.199-.29-.288-.11-.098-.47-.324-.496-.467a7.06 7.06 0 0 0 .004-1.886l.992-.87.09-.194c-.165-.496-.319-1-.545-1.473-.078-.162-.326-.659-.455-.732a.38.38 0 0 0-.167-.06c-.112-.007-.412.025-.545.035-.178.014-.627.141-.773.034-.044-.032-.06-.118-.095-.16-.367-.438-.788-.788-1.197-1.181l.081-1.272c-.015-.216-.517-.45-.705-.54a11.44 11.44 0 0 0-.953-.394 7.574 7.574 0 0 0-.537-.171.428.428 0 0 0-.282.09c-.2.169-.44.565-.64.77-.065.068-.162.186-.259.191-.619-.072-1.242-.1-1.855.026l-.883-1.038c-.15-.12-.677.098-.868.165-.356.125-1.181.464-1.456.693-.162.135-.128.39-.117.588.008.131.12.899.091.943-.03.017-.075.019-.102.04-.278.22-.662.596-.904.862-.055.06-.3.404-.326.412-.372.09-1.195-.205-1.488.02-.084.065-.347.557-.407.684-.11.232-.226.535-.312.779-.081.233-.275.663-.147.882.338.297.708.55.997.898a7.259 7.259 0 0 0-.005 1.917c-.2.153-.37.338-.558.503-.087.077-.454.326-.48.387-.097.233.147.626.23.86.1.278.163.538.303.82.1.201.33.687.56.724l1.296-.08.498.563.833.77c.038.43-.089.867-.049 1.3.009.097.014.135.08.21.084.09.643.366.789.43.422.19.877.314 1.31.48l.215-.044c.187-.23.396-.44.591-.66.086-.095.124-.233.258-.319.15-.094.496.01.687.017.441.016.875-.022 1.312-.061.347.345.601.806 1.007 1.08.623-.2 1.336-.415 1.902-.748.197-.116.368-.187.386-.45l-.091-1.18c.023-.102.36-.325.463-.42Z"
  />
  <path
    fill="currentColor"
    d="m14.242 5.447.873-1.035c.06-.042.27-.026.21.081-.212.18-.432.424-.537.683-.09.22-.106.69-.044.922.031.116.106.251.233.28.478.108 1.322-.471 1.693-.764.086-.068.475-.496.562-.416l-.117 1.36.03.138c.548.407 1.058.877 1.441 1.447.095.054.942-.085 1.13-.091.077-.003.22-.012.285.008.077.023.39.683.444.806.074.163.455 1.088.445 1.192l-1.087.97a6.6 6.6 0 0 1-.006 2.077c.073.17.259.182.36.348.118.19.5 1.032.508 1.227.015.33-.462 1.09-.61 1.413l-.047.033-1.408-.078c-.043.015-.463.57-.546.657-.06.063-.501.494-.534.51-.142.065-.326-.34-.523-.302l-.878.791c-.35-.197-.6-.344-1.02-.314-.193.014-.42.1-.61.098-.31-.003-.727-.14-1.06-.163-.743-.048-1.269.107-1.957.16-.382.03-.842-.125-1.213.07-.121.064-.19.227-.327.221-.222-.01-.633-.68-.93-.678-.095 0-.15.091-.239.052-.051-.024-.547-.54-.627-.627-.139-.15-.261-.324-.391-.482l-1.421.082c-.051-.026-.244-.376-.264-.443-.109-.364.28-1.206.297-1.674.007-.192-.074-.516-.027-.67.024-.08.194-.118.213-.204.015-.067-.083-.51-.09-.636-.03-.462 0-.958.096-1.41-.015-.143-1.088-.896-1.09-1.027.222-.675.46-1.35.831-1.96.068-.07.24-.053.34-.047.37.021.755.135 1.131.089.38-.577.905-1.031 1.434-1.468.028-.458-.05-.922-.08-1.38.022-.024.13.063.157.084.239.176.447.389.698.553.35.228 1.301.806 1.497.16.151-.499-.052-1.073-.395-1.446-.035-.039-.238-.136-.193-.184.112-.018.228-.114.34-.035l.902 1.023 1.05-.092 1.07.091h.001Zm-7.484 4.21c-.203.035-.491-.025-.705 0l-.033.065c.038.088.475.355.583.411.18.093.539.26.731.228.203-.033.453-.443.594-.592.22-.23.527-.475.835-.56-.052.2-.15.377-.208.577-.157.537-.195 1.567.086 2.063.483.85 1.75.736 2.086-.18a.795.795 0 0 0 .058-.343c-.079-.09-.212.335-.229.365-.428.813-1.676.696-1.911-.198-.184-.7-.114-2.434.967-2.25.275.047.667.57.8.804.276.488.407 1.058.758 1.504a4.685 4.685 0 0 0-.073-.777c-.173-.91-.798-2.567-1.872-2.684-.82-.089-1.537.203-1.995.884-.115.171-.282.651-.471.684Zm4.347.417c-.046-.397-.231-.876-.423-1.229-.154-.284-.465-.697-.796-.76.11.312.42.486.604.76.26.386.34.86.615 1.23Zm5.55-1.925c-.32.026-.61.44-.765.696-.207.342-.41.83-.422 1.23.143-.101.153-.293.219-.44.286-.639.513-.85.924-1.369.027-.034.05-.07.044-.117Zm2.394.59c-.526-.57-1.596-.833-2.263-.378-.785.535-1.183 1.65-1.367 2.546-.045.218-.102.461-.047.675.19-.125.186-.392.352-.513.017.173.01.39.035.559.042.285.523.787.816.82.239.028.662.024.872-.09.37-.2.541-.57.62-.968-.079-.09-.254.383-.273.417-.434.777-1.645.618-1.888-.262-.173-.627-.005-1.122.338-1.642.218-.331.634-.698 1.053-.583.373.103.479.434.575.773.024.085.057.406.118.427l.109.003c.017-.441-.2-.85-.353-1.25.6.097.888.742 1.315 1.075.165.128.24.122.438.052.043-.016.041-.054.07-.066.323-.132.701-.248.904-.548-.198-.072-.707-.018-.843-.127-.072-.058-.135-.307-.189-.398-.09-.153-.27-.39-.392-.522Zm-9.467.79c-.088.02-.212.511-.207.596.006.095.224.195.222.317l-.251.135c.064.39-.14.974.36 1.099.38-.58.275-1.353.012-1.963-.02-.045-.068-.198-.136-.184Zm7.014 1.16c-.019.032-.007.125-.002.168.016.121.114.71.156.775.127.203.362.012.41-.17.082-.312.07-1.25-.03-1.557-.032-.095-.1-.245-.174-.31-.103-.022-.33.597-.333.692-.004.106.124.15.204.202l.02.082-.25.119Zm-5.78 1.599c-.58.314-1.262.33-1.908.256-.591-.067-.896-.17-1.172-.721-.152-.305-.207-.664-.4-.947l-.073.634-.393.345.49-.082c.072.084.2.347.145.444-.04.07-.388.189-.314.423.17.003.298-.316.457-.283.159.034.61.53.89.508l-.48.096c.045.032.128.002.153.01.004.002.003.048.074.066.412.098.867.06 1.28-.012.003-.048-.115-.057-.148-.06-.096-.01-.197.007-.286-.004-.047-.006-.099-.025-.047-.064.415.003.908-.044 1.3-.192.175-.066.48-.196.432-.418v.001Zm8.551-.628c-.043-.046-.088-.05-.107-.132-.038-.166.096-.515-.135-.555-.198.564-.312 1.313-.954 1.532-.423.144-1.521.19-1.948.07-.194-.055-.386-.212-.594-.207.322.55 1.098.557 1.667.626l-.224.128c.448.043.912.077 1.347-.064-.087-.156-.282-.065-.416-.112.127-.075.276-.1.407-.17.117-.063.386-.337.45-.354.22-.06.37.373.49.251-.03-.254-.245-.295-.347-.49.115-.482.298-.324.668-.216-.054-.147-.198-.194-.303-.307Zm-2.295 2.136c-.069-.17-.217-.313-.353-.434-1.767-1.581-5.319-1.39-7.058.16-.101.09-.189.198-.288.29-.003.102.262-.027.297-.047.638-.372 1.034-.688 1.78-.955 1.566-.562 3.743-.318 5.119.64.078.054.443.393.503.346Zm-1.411.93c-.105-.077-.811.182-.913.29-.137.147-.083.518-.048.703.076.066.786-.323.736-.544l-.53.289c-.037-.108.19-.3.276-.366.163-.124.4-.161.479-.372Zm-4.396.642c-.035.03.104.155.128.177.08.07.53.349.595.242.166-.654-.421-.945-.98-.836.1.226.431.153.618.32.036.033.192.272.073.225-.133-.052-.257-.17-.434-.128Z"
  />
  <path
    fill="currentColor"
    d="M14.244 18.708a5.565 5.565 0 0 1-2.09 0l-.976 1.082a7.012 7.012 0 0 1-2.014-.83c-.035-.473.052-.95.074-1.424-.015-.077-.195-.085-.154-.212.096-.1.681.762.907.701.046-.012.207-.194.248-.155.098.583.365 1.272.945 1.508.099-.01.148-.16.179-.24.15-.384.198-.947.355-1.281.09-.19.295-.26.493-.277.375-.033 1.244-.036 1.596.042.91.203.563.905 1.02 1.515l.24.208a2.57 2.57 0 0 0 .594-1.572l.428.186c.258-.135.466-.398.697-.553.165-.11.293-.186.447-.001l-.13.16c.093.439.081.894.124 1.34-.046.15-1.207.635-1.412.706-.11.038-.568.199-.644.179l-.927-1.082Zm2.667-13.64-.02.066c-.37.326-1.365 1.245-1.897 1-.148-.068-.15-.46-.137-.603.037-.406.463-1.068.932-.96l1.122.497Zm-5.948-.309c.145.132.33.425.358.62.021.143.048.723-.11.77-.265.08-.635-.082-.865-.212-.166-.094-.95-.658-1.005-.792-.024-.059.027-.04.045-.05.14-.074.281-.15.424-.217.143-.068.62-.299.742-.32.16-.027.302.1.411.201Z"
  />
  <path
    fill="currentColor"
    d="M11.361 17.741v.561c0 .068-.079.388-.105.473-.03.103-.11.2-.12.314-.134.092-.501-.531-.55-.652-.047-.113-.212-.652-.124-.713.291-.065.602-.002.9.017Zm4.043-.131c.068.478-.04 1.015-.322 1.411-.312-.094-.595-1.084-.439-1.274.015-.019.28-.138.296-.138h.465ZM6.26 13.442c-.04.301-.084.6-.143.898a9.732 9.732 0 0 1-.18.783c-.01.034-.02.144-.077.115-.057-.03-.417-1.098-.403-1.165l.69-.601.114-.03Zm14.213.354c.069-.054.376.23.402.29.029.065-.05.318-.098.318l-.304-.608ZM9.308 8.66l-.08.096a3.124 3.124 0 0 0-1.157.193c-.235-.024-.032-.24.067-.32.34-.278.822-.183 1.17.032Zm-1.555.255c.13-.031.15.47-.084.275l-.028-.065.112-.21Zm11.019.418c-.06.056-.33-.232-.387-.27-.338-.229-.678-.248-1.073-.275-.165-.012-.055-.083.026-.135.567-.362 1.219.15 1.434.68Zm-1.764-.672c.024.028-.1.336-.176.32-.126-.024.067-.342.176-.32Z"
  />
</svg>
