<svg width="24" height="24" viewBox="0 0 24 24" fill="none" xmlns="http://www.w3.org/2000/svg">
  <path
    fill="currentColor"
    d="M6.342 20.25c-.232-1.006-.053-2.036.336-2.976-.782-1.267-.774-3.042-.072-4.34-1.114-1.554-.615-3.772.862-4.893-.149-.871-.184-1.8.019-2.666.146-.625.564-1.585 1.312-1.62 1.14-.053 1.616 1.71 1.636 2.597.026.027.551-.255.642-.29.887-.337 1.726-.287 2.585.102.13.059.237.156.376.188.084-.635.198-1.283.526-1.842.703-1.197 1.789-.888 2.27.285.405.99.373 2.207.202 3.246 1.475 1.13 1.971 3.33.862 4.893.685 1.287.726 3.1-.092 4.337.429.926.574 1.977.356 2.978h-1.008c.312-.718.191-1.624-.09-2.337-.072-.178-.306-.541-.307-.701-.002-.268.212-.389.343-.574.508-.718.465-2.313.07-3.078-.107-.207-.361-.408-.353-.654.008-.246.317-.499.444-.718.694-1.197.13-2.995-1.115-3.589-.55-.262-.754-.154-1.299-.166-.391-.009-.398-.278-.563-.538-.893-1.4-2.878-1.477-3.926-.198-.227.277-.286.736-.703.736-.336 0-.53-.07-.894.02-1.55.384-2.327 2.497-1.461 3.83.122.188.384.389.386.622.002.232-.246.444-.353.655-.39.766-.433 2.262.023 3.005.105.172.337.329.36.524.04.312-.137.488-.25.759-.3.723-.445 1.67-.117 2.403H6.342ZM8.327 7.573c.252-.028.496-.095.749-.122.09-.01.226.02.3-.005.036-.013.163-.212.171-.256.065-.347-.064-1.192-.16-1.548-.053-.198-.297-.884-.501-.937-.192-.05-.412.616-.452.76-.113.405-.136.789-.17 1.206l.063.902Zm7.292-2.867c-.175.025-.414.624-.466.79-.121.387-.268 1.31-.197 1.694.009.044.136.243.172.256.074.025.21-.004.3.005.11.012.665.13.699.12.04-.013.042-.04.049-.075.11-.537.04-1.5-.106-2.03-.043-.156-.258-.788-.451-.76Z"
  />
  <path
    fill="currentColor"
    d="M12.14 10.665c1.372-.038 2.981.972 2.617 2.528-.457 1.95-4.365 1.995-4.978.121-.482-1.475 1.023-2.612 2.36-2.649Zm-.062.644c-1.176.086-2.486 1.346-1.308 2.327.883.736 3.678.528 3.382-1.06-.164-.883-1.264-1.327-2.074-1.267Zm3.235-.52c.593-.096 1.018.722.59 1.139-.351.343-.963.118-1.063-.344-.052-.24-.028-.474.166-.645a.851.851 0 0 1 .307-.15Zm-6.322 0a.588.588 0 0 1 .434.101c.578.396.097 1.41-.616 1.166-.628-.215-.412-1.17.182-1.267Z"
  />
  <path
    fill="currentColor"
    d="M11.862 12.16c.186-.04.292.12.385.11.123-.012.222-.216.447-.068.38.249-.179.513-.208.617-.032.112.09.321-.003.453-.156.118-.464.14-.53-.088-.035-.124.059-.273.035-.365-.027-.105-.323-.184-.33-.408-.004-.105.104-.228.204-.25Z"
  />
</svg>
