<svg width="24" height="24" viewBox="0 0 24 24" fill="none" xmlns="http://www.w3.org/2000/svg">
  <path
    fill="currentColor"
    d="M15.795 20.5v-1.672c-.823.122-1.779.095-2.614 0-3.06-.351-4.432-1.895-6.831-3.415-1.344-.852-2.69-1.437-4.294-1.632L2 10.268c.74-.15 1.499-.29 2.218-.535C6.79 8.857 8.62 6.61 11.176 5.678c1.523-.556 3.15-.614 4.758-.575V3.5L22 7.053l-6.066 3.484V8.76l-.104-.104h-1.952c-.224 0-.896.173-1.15.244-1.843.514-3.415 2.235-5.088 3.135 1.635.896 3.14 2.551 4.949 3.065.25.07.929.244 1.15.244h2.057v-1.811l6.064 3.449-5.925 3.518h-.14Z"
  />
</svg>
