<svg width="24" height="24" viewBox="0 0 24 24" fill="none" xmlns="http://www.w3.org/2000/svg">
  <path fill="currentColor" d="M20.247 10.276a4.68 4.68 0 0 0-.412-3.887 4.866 4.866 0 0 0-4.207-2.404 4.97 4.97 0 0 0-1.018.106c-.45-.5-1.003-.9-1.621-1.175a4.853 4.853 0 0 0-1.967-.416h-.042c-2.104 0-3.97 1.34-4.617 3.315a4.83 4.83 0 0 0-1.855.806 4.756 4.756 0 0 0-1.352 1.49 4.742 4.742 0 0 0-.656 2.403c0 1.186.446 2.33 1.252 3.21a4.678 4.678 0 0 0 .412 3.887 4.83 4.83 0 0 0 2.234 1.99c.939.412 1.986.52 2.992.308.45.5 1.002.9 1.621 1.175a4.853 4.853 0 0 0 1.967.416h.043c2.105 0 3.97-1.34 4.617-3.316a4.83 4.83 0 0 0 1.855-.807 4.758 4.758 0 0 0 1.353-1.49 4.735 4.735 0 0 0-.598-5.61v-.001Zm-7.237 9.982h-.005a3.632 3.632 0 0 1-2.305-.824c.038-.02.076-.042.114-.064l3.834-2.185a.619.619 0 0 0 .315-.535v-5.337l1.62.923a.058.058 0 0 1 .032.044v4.417c-.002 1.964-1.615 3.557-3.605 3.56ZM5.256 16.99a3.517 3.517 0 0 1-.43-2.386l.114.067 3.834 2.185a.63.63 0 0 0 .63 0l4.68-2.667v1.851a.057.057 0 0 1-.022.046l-3.876 2.208a3.655 3.655 0 0 1-3.608-.002 3.59 3.59 0 0 1-1.322-1.302ZM4.248 8.73a3.585 3.585 0 0 1 1.878-1.56l-.002.13v4.374a.609.609 0 0 0 .315.534l4.68 2.667-1.62.923a.059.059 0 0 1-.054.005l-3.877-2.21A3.589 3.589 0 0 1 4.25 12.29a3.528 3.528 0 0 1-.001-3.558Zm13.314 3.058-4.68-2.667 1.62-.923a.059.059 0 0 1 .055-.005l3.876 2.208a3.587 3.587 0 0 1 1.32 1.304 3.52 3.52 0 0 1 .484 1.78 3.564 3.564 0 0 1-2.362 3.342v-4.506a.607.607 0 0 0-.313-.533Zm1.613-2.395a5.39 5.39 0 0 0-.114-.067L15.227 7.14a.633.633 0 0 0-.63 0l-4.68 2.667v-1.85c0-.018.008-.035.023-.045l3.876-2.207a3.648 3.648 0 0 1 1.802-.476c1.993 0 3.61 1.595 3.61 3.561 0 .202-.018.403-.053.602Zm-10.14 3.29-1.62-.922a.057.057 0 0 1-.032-.044V7.3c0-1.965 1.617-3.559 3.609-3.559.844 0 1.66.292 2.31.824l-.115.064-3.834 2.185a.62.62 0 0 0-.315.535v.003l-.003 5.332Zm.88-1.872 2.086-1.188 2.085 1.187v2.376L12 14.374l-2.085-1.187v-2.375Z"/>
</svg>
