<svg width="68" height="16" viewBox="0 0 68 16" fill="none" xmlns="http://www.w3.org/2000/svg">
<path d="M4.06475 5.90094L0.988722 7.91202L0 6.21847L3.26828 4.6837L0.0823935 3.20185L1.04365 1.50831L4.06475 3.49293L3.73517 0H5.74008L5.46544 3.49293L8.34921 1.50831L9.33793 3.20185L6.15205 4.6837L9.42033 6.21847L8.40414 7.91202L5.46544 5.9274L5.74008 9.42033H3.73517L4.06475 5.90094Z" fill="#F1F1F1"/>
<path d="M58.3005 0.180298H60.4881V9.92092L64.9324 4.83185H67.5345L63.6659 8.88468L67.7878 15.7008H65.3469L62.2151 10.4505L60.4881 12.4079V15.7008H58.3005V0.180298Z" fill="#F1F1F1"/>
<path d="M52.4592 15.9994C51.4306 15.9994 50.5019 15.7999 49.6729 15.4007C48.8439 14.9862 48.1761 14.4259 47.6695 13.7197L49.6038 12.7065C49.9262 13.1824 50.3484 13.5432 50.8703 13.7888C51.3923 14.0344 51.9526 14.1572 52.5513 14.1572C53.1654 14.1572 53.649 14.0267 54.002 13.7658C54.3551 13.5048 54.5317 13.144 54.5317 12.6835C54.5317 12.315 54.3551 12.0387 54.002 11.8545C53.649 11.6703 53.0656 11.486 52.252 11.3018L51.5381 11.1406C50.7705 10.9871 50.1181 10.7952 49.5808 10.5649C49.0435 10.3347 48.6059 10.0123 48.2682 9.59779C47.9458 9.16795 47.7846 8.62296 47.7846 7.96284C47.7846 7.33342 47.9612 6.76541 48.3143 6.25881C48.6827 5.73685 49.1816 5.33003 49.811 5.03835C50.4405 4.74667 51.1313 4.60083 51.8835 4.60083C52.8814 4.60083 53.7718 4.80808 54.5547 5.22257C55.353 5.62171 56.0285 6.18973 56.5811 6.9266L54.6238 7.87073C54.3168 7.39483 53.9253 7.03407 53.4494 6.78844C52.9735 6.54281 52.4515 6.42 51.8835 6.42C51.2848 6.42 50.8089 6.55049 50.4558 6.81147C50.1181 7.05709 49.9492 7.38715 49.9492 7.80165C49.9492 8.12403 50.049 8.36966 50.2486 8.53853C50.4481 8.7074 50.7936 8.86091 51.2848 8.99908C51.6993 9.07584 52.1522 9.16794 52.6434 9.27541C52.7816 9.30611 52.9044 9.33681 53.0119 9.36752C53.7334 9.52103 54.3628 9.7206 54.9001 9.96623C55.4374 10.1965 55.8673 10.5266 56.1897 10.9564C56.5274 11.3709 56.6963 11.8929 56.6963 12.5223C56.6963 13.1824 56.512 13.7811 56.1436 14.3184C55.7905 14.8404 55.2916 15.2549 54.6468 15.5619C54.002 15.8536 53.2728 15.9994 52.4592 15.9994Z" fill="#F1F1F1"/>
<path d="M41.2319 4.83132H43.4655V6.88077C43.6344 6.18994 43.9645 5.66031 44.4557 5.29187C44.947 4.90808 45.6762 4.71619 46.6433 4.71619H46.9657V6.92682H45.9525C45.0007 6.92682 44.3483 7.17245 43.9952 7.6637C43.6421 8.15496 43.4655 8.97627 43.4655 10.1276V15.7003H41.2319V4.83132Z" fill="#F1F1F1"/>
<path d="M37.4209 15.7006C36.7761 15.7006 36.2695 15.6008 35.9011 15.4012C35.548 15.1863 35.2947 14.887 35.1412 14.5032C35.003 14.104 34.9339 13.5974 34.9339 12.9834V6.74292H33.1838V4.83164H34.9339V2.69009L37.0755 1.35449V4.83164H39.4473V6.74292H37.0755V12.7301C37.0755 13.0831 37.1522 13.3441 37.3058 13.513C37.4593 13.6665 37.7126 13.7433 38.0657 13.7433H39.3552V15.7006H37.4209Z" fill="#F1F1F1"/>
<path d="M28.2633 15.9994C27.2347 15.9994 26.3059 15.7999 25.477 15.4007C24.648 14.9862 23.9802 14.4259 23.4736 13.7197L25.4079 12.7065C25.7303 13.1824 26.1524 13.5432 26.6744 13.7888C27.1963 14.0344 27.7567 14.1572 28.3554 14.1572C28.9695 14.1572 29.453 14.0267 29.8061 13.7658C30.1592 13.5048 30.3358 13.144 30.3358 12.6835C30.3358 12.315 30.1592 12.0387 29.8061 11.8545C29.453 11.6703 28.8697 11.486 28.056 11.3018L27.3422 11.1406C26.5746 10.9871 25.9222 10.7952 25.3849 10.5649C24.8475 10.3347 24.41 10.0123 24.0723 9.59779C23.7499 9.16795 23.5887 8.62296 23.5887 7.96284C23.5887 7.33342 23.7653 6.76541 24.1183 6.25881C24.4868 5.73685 24.9857 5.33003 25.6151 5.03835C26.2445 4.74667 26.9354 4.60083 27.6876 4.60083C28.6855 4.60083 29.5759 4.80808 30.3588 5.22257C31.1571 5.62171 31.8325 6.18973 32.3852 6.9266L30.4279 7.87073C30.1208 7.39483 29.7294 7.03407 29.2535 6.78844C28.7776 6.54281 28.2556 6.42 27.6876 6.42C27.0889 6.42 26.613 6.55049 26.2599 6.81147C25.9222 7.05709 25.7533 7.38715 25.7533 7.80165C25.7533 8.12403 25.8531 8.36966 26.0526 8.53853C26.2522 8.7074 26.5976 8.86091 27.0889 8.99908C27.5034 9.07584 27.9563 9.16794 28.4475 9.27541C28.5857 9.30611 28.7085 9.33681 28.8159 9.36752C29.5375 9.52103 30.1669 9.7206 30.7042 9.96623C31.2415 10.1965 31.6714 10.5266 31.9937 10.9564C32.3315 11.3709 32.5003 11.8929 32.5003 12.5223C32.5003 13.1824 32.3161 13.7811 31.9477 14.3184C31.5946 14.8404 31.0957 15.2549 30.4509 15.5619C29.8061 15.8536 29.0769 15.9994 28.2633 15.9994Z" fill="#F1F1F1"/>
<path d="M16.5811 15.7666C15.646 15.7666 14.7973 15.5364 14.0349 15.076C13.2724 14.6013 12.6682 13.9612 12.2223 13.1556C11.7907 12.35 11.575 11.4437 11.575 10.4367C11.575 9.42974 11.7907 8.52346 12.2223 7.71787C12.6682 6.91228 13.2652 6.27213 14.0133 5.79741C14.7757 5.32269 15.6317 5.08533 16.5811 5.08533C17.3579 5.08533 18.0484 5.25076 18.6526 5.58163C19.2712 5.89811 19.7675 6.34406 20.1415 6.91948C20.5155 7.48051 20.7241 8.13505 20.7673 8.8831V11.9688C20.7241 12.7024 20.5155 13.357 20.1415 13.9324C19.7819 14.5078 19.2928 14.961 18.6742 15.2918C18.07 15.6083 17.3723 15.7666 16.5811 15.7666ZM16.9048 13.9324C17.8686 13.9324 18.6454 13.6087 19.2352 12.9614C19.825 12.2997 20.1199 11.4581 20.1199 10.4367C20.1199 9.73184 19.9833 9.12046 19.7099 8.60258C19.451 8.07032 19.077 7.66033 18.5879 7.37262C18.0988 7.07053 17.5305 6.91948 16.8832 6.91948C16.2358 6.91948 15.6604 7.07053 15.1569 7.37262C14.6678 7.67472 14.2794 8.0919 13.9917 8.62416C13.7184 9.14204 13.5817 9.73903 13.5817 10.4152C13.5817 11.1057 13.7184 11.717 13.9917 12.2493C14.2794 12.7672 14.675 13.1772 15.1785 13.4793C15.682 13.7814 16.2574 13.9324 16.9048 13.9324ZM19.9905 15.5508V12.7888L20.3573 10.2857L19.9905 7.80418V5.30111H21.9541V15.5508H19.9905Z" fill="#F1F1F1"/>
</svg>
