<svg viewBox="0 0 12 12" fill="none" xmlns="http://www.w3.org/2000/svg">
<g clip-path="url(#clip0_33003_7164)">
<path fill-rule="evenodd" clip-rule="evenodd" d="M8.44334 3.32127C8.44337 3.64268 8.3801 3.96095 8.25713 4.25791C8.13416 4.55487 7.95391 4.8247 7.72666 5.05199C7.49941 5.27928 7.22962 5.45959 6.93269 5.58262C6.63576 5.70565 6.3175 5.76899 5.99609 5.76902C5.34697 5.76909 4.72442 5.51129 4.26537 5.05234C3.80633 4.59339 3.54841 3.97089 3.54834 3.32177C3.54831 3.00036 3.61158 2.68209 3.73455 2.38514C3.85752 2.08818 4.03777 1.81835 4.26502 1.59106C4.72397 1.13201 5.34647 0.87409 5.99559 0.874023C6.64471 0.873957 7.26727 1.13175 7.72631 1.5907C8.18535 2.04965 8.44327 2.67216 8.44334 3.32127M5.99584 6.51777C2.47134 6.51777 1.10034 8.76077 1.10034 9.80427C1.10034 10.8473 4.01884 11.1253 5.99584 11.1253C7.97284 11.1253 10.8913 10.8473 10.8913 9.80427C10.8913 8.76077 9.52034 6.51777 5.99584 6.51777Z" fill="#313131"/>
</g>
<defs>
<clipPath id="clip0_33003_7164">
<rect width="12" height="12" fill="white"/>
</clipPath>
</defs>
</svg>
