<svg width="12" height="12" viewBox="0 0 12 12" fill="none" xmlns="http://www.w3.org/2000/svg">
<path fill-rule="evenodd" clip-rule="evenodd" d="M0.695331 2.02946C0.575017 2.07187 0.460254 2.18266 0.427541 2.28796C0.391843 2.40289 0.389698 8.51472 0.425302 8.63843C0.454378 8.73946 0.54368 8.84631 0.642728 8.89864C0.708854 8.93355 0.860901 8.93841 2.25462 8.95011C3.59938 8.9614 3.81263 8.96786 3.94507 9.00129C4.60903 9.16886 5.0779 9.44597 5.5042 9.9227C5.54633 9.96981 5.59312 10.0044 5.60816 9.99955C5.62889 9.99289 5.63694 9.15933 5.64141 6.55491L5.64731 3.11905L5.57347 3.01366C5.46785 2.86294 5.17058 2.58835 4.98139 2.46674C4.66982 2.26646 4.37227 2.14514 3.98004 2.05839C3.78192 2.01459 3.68686 2.0116 2.27794 2.00481C1.0354 1.99882 0.770573 2.00294 0.695331 2.02946ZM8.30709 2.0219C7.61697 2.09942 6.91213 2.46458 6.51328 2.95123L6.3651 3.13204V6.54364C6.3651 9.6602 6.36837 9.95786 6.40285 9.98549C6.43584 10.0119 6.45259 10.0016 6.53561 9.90387C6.92558 9.44486 7.46832 9.13199 8.1255 8.98741C8.32136 8.9443 8.43488 8.94035 9.82935 8.92797L11.3234 8.9147L11.4171 8.85484C11.4686 8.82193 11.5308 8.75613 11.5552 8.70861C11.5983 8.62491 11.5997 8.52564 11.5997 5.48406C11.5997 3.75805 11.5918 2.3188 11.5822 2.28574C11.5559 2.19544 11.45 2.08586 11.3441 2.03947C11.2559 2.00078 11.1619 1.99833 9.86258 2.0006C9.09954 2.00193 8.39956 2.01151 8.30709 2.0219Z" fill="#313131"/>
</svg>
