<svg width="16" height="16" viewBox="0 0 16 16" fill="none" xmlns="http://www.w3.org/2000/svg">
<path d="M15.8125 1.14685C8.22988 4.9248 3.21686 11.5094 3.19801 11.5348C1.33299 13.1541 0 14.3138 0 14.3138C0.00942297 14.4168 0.171788 14.3871 0.171788 14.3871L2.60219 13.3425C2.83776 13.2106 2.78702 13.1004 2.78702 13.1004C2.53188 13.0888 2.3224 13.0185 2.3224 13.0185C2.37096 12.975 2.63916 12.7358 3.05957 12.3611L12.6159 3.73386L3.66481 12.0378C4.80716 11.9276 5.84369 11.7319 6.78309 11.4695C5.93647 11.1107 5.8176 10.8911 5.8176 10.8911C5.93575 11.065 6.4946 11.2354 7.10709 11.376C9.48748 10.6541 11.2257 9.49573 12.497 8.22869C10.9923 8.37293 9.58896 7.87133 9.58896 7.87133C11.0024 8.08807 12.1208 7.96991 12.9377 7.76551C14.1446 6.4267 14.8122 5.15603 15.2493 4.03903C14.7585 4.43552 14.0178 4.75228 13.0066 4.6798C13.0066 4.6798 14.4345 4.46307 15.4602 3.48379C15.7719 2.60454 15.9118 1.97609 15.948 1.81155C16.1191 1.04103 15.8132 1.14758 15.8132 1.14758L15.8125 1.14685Z" fill="currentColor"/>
</svg>
