<svg width="24" height="24" viewBox="0 0 24 24" fill="none" xmlns="http://www.w3.org/2000/svg">
<path d="M10.1996 6.30161L6.29961 10.2016M6.99981 12.0016C6.99981 13.3823 5.88046 14.5016 4.49981 14.5016C3.11916 14.5016 1.99981 13.3823 1.99981 12.0016C1.99981 10.621 3.11916 9.50161 4.49981 9.50161C5.88046 9.50161 6.99981 10.621 6.99981 12.0016ZM6.99981 12.0016H16.9998M16.9998 12.0016C16.9998 13.3823 18.1192 14.5016 19.4998 14.5016C20.8805 14.5016 21.9998 13.3823 21.9998 12.0016C21.9998 10.621 20.8805 9.50161 19.4998 9.50161C18.1192 9.50161 16.9998 10.621 16.9998 12.0016ZM13.7996 17.7016L17.6996 13.8016M14.4998 4.50161C14.4998 5.88226 13.3805 7.00161 11.9998 7.00161C10.6192 7.00161 9.49981 5.88226 9.49981 4.50161C9.49981 3.12096 10.6192 2.00161 11.9998 2.00161C13.3805 2.00161 14.4998 3.12096 14.4998 4.50161ZM14.4998 19.5016C14.4998 20.8823 13.3805 22.0016 11.9998 22.0016C10.6192 22.0016 9.49981 20.8823 9.49981 19.5016C9.49981 18.121 10.6192 17.0016 11.9998 17.0016C13.3805 17.0016 14.4998 18.121 14.4998 19.5016Z" stroke="currentColor" stroke-width="2" stroke-linecap="round" stroke-linejoin="round"/>
</svg>
