<svg width="20" height="20" viewBox="0 0 20 20" fill="none" xmlns="http://www.w3.org/2000/svg">
<g clip-path="url(#clip0_31508_22451)">
<path d="M8.49967 5.25134L5.24967 8.50134M5.83317 10.0013C5.83317 11.1519 4.90043 12.0846 3.74984 12.0846C2.59924 12.0846 1.6665 11.1519 1.6665 10.0013C1.6665 8.85071 2.59924 7.91797 3.74984 7.91797C4.90043 7.91797 5.83317 8.85071 5.83317 10.0013ZM5.83317 10.0013H14.1665M14.1665 10.0013C14.1665 11.1519 15.0992 12.0846 16.2498 12.0846C17.4004 12.0846 18.3332 11.1519 18.3332 10.0013C18.3332 8.85071 17.4004 7.91797 16.2498 7.91797C15.0992 7.91797 14.1665 8.85071 14.1665 10.0013ZM11.4997 14.7513L14.7497 11.5013M12.0832 3.7513C12.0832 4.9019 11.1504 5.83464 9.99984 5.83464C8.84924 5.83464 7.9165 4.9019 7.9165 3.7513C7.9165 2.60071 8.84924 1.66797 9.99984 1.66797C11.1504 1.66797 12.0832 2.60071 12.0832 3.7513ZM12.0832 16.2513C12.0832 17.4019 11.1504 18.3346 9.99984 18.3346C8.84924 18.3346 7.9165 17.4019 7.9165 16.2513C7.9165 15.1007 8.84924 14.168 9.99984 14.168C11.1504 14.168 12.0832 15.1007 12.0832 16.2513Z" stroke="currentColor" stroke-width="current" stroke-linecap="round" stroke-linejoin="round"/>
</g>
<defs>
<clipPath id="clip0_31508_22451">
<rect width="20" height="20" fill="white"/>
</clipPath>
</defs>
</svg>
