<svg width="24" height="24" viewBox="0 0 24 24" fill="none" xmlns="http://www.w3.org/2000/svg">
<path d="M19 2C19.7957 2 20.5585 2.3163 21.1211 2.87891C21.6837 3.44152 22 4.20435 22 5V15C22 15.7957 21.6837 16.5585 21.1211 17.1211C20.5585 17.6837 19.7957 18 19 18H7.41406L3.70703 21.707C3.42103 21.993 2.99086 22.0786 2.61719 21.9238C2.24359 21.769 2 21.4044 2 21V5C2 4.20435 2.3163 3.44152 2.87891 2.87891C3.44152 2.3163 4.20435 2 5 2H19ZM11.9238 6C11.3495 6 10.8838 6.46568 10.8838 7.04004V8.20215L9.88086 7.62305C9.38349 7.33589 8.74718 7.5066 8.45996 8.00391C8.17298 8.50128 8.34349 9.1367 8.84082 9.42383L9.83398 9.99707L8.84082 10.5723C8.34341 10.8594 8.17278 11.4958 8.45996 11.9932C8.74726 12.4903 9.38359 12.6601 9.88086 12.373L10.8838 11.7939V12.96C10.8839 13.5342 11.3495 14 11.9238 14C12.498 13.9998 12.9638 13.5341 12.9639 12.96V11.8037L13.9668 12.3838C14.464 12.6707 15.1004 12.5009 15.3877 12.0039C15.6747 11.5066 15.504 10.8702 15.0068 10.583L13.9941 9.99805L15.0068 9.41406C15.504 9.12686 15.6747 8.49047 15.3877 7.99316C15.1006 7.49583 14.4642 7.32531 13.9668 7.6123L12.9639 8.19141V7.04004C12.9639 6.46579 12.498 6.00018 11.9238 6Z" fill="#F1F1F1"/>
</svg>
