<svg width="24" height="25" viewBox="0 0 24 25" fill="none" xmlns="http://www.w3.org/2000/svg">
<path d="M21 17.75V19.75C21 20.2804 20.7893 20.7891 20.4142 21.1642C20.0391 21.5393 19.5304 21.75 19 21.75H5C4.46957 21.75 3.96086 21.5393 3.58579 21.1642C3.21071 20.7891 3 20.2804 3 19.75V17.75M21 7.75V5.75C21 5.21957 20.7893 4.71086 20.4142 4.33579C20.0391 3.96071 19.5304 3.75 19 3.75H5C4.46957 3.75 3.96086 3.96071 3.58579 4.33579C3.21071 4.71086 3 5.21957 3 5.75V7.75M5 12.75C5 12.75 7.545 7.75 12 7.75C16.454 7.75 19 12.75 19 12.75C19 12.75 16.454 17.75 12 17.75C7.545 17.75 5 12.75 5 12.75ZM12 13.75C12.2652 13.75 12.5196 13.6446 12.7071 13.4571C12.8946 13.2696 13 13.0152 13 12.75C13 12.4848 12.8946 12.2304 12.7071 12.0429C12.5196 11.8554 12.2652 11.75 12 11.75C11.7348 11.75 11.4804 11.8554 11.2929 12.0429C11.1054 12.2304 11 12.4848 11 12.75C11 13.0152 11.1054 13.2696 11.2929 13.4571C11.4804 13.6446 11.7348 13.75 12 13.75Z" stroke="#111111" strokeWidth="2" strokeLinecap="round" strokeLinejoin="round"/>
</svg>
